<?xml version="1.0"?>
<!DOCTYPE svg PUBLIC "-//W3C//DTD SVG 1.1//EN" "http://www.w3.org/Graphics/SVG/1.1/DTD/svg11.dtd">
<svg xmlns="http://www.w3.org/2000/svg" xmlns:xl="http://www.w3.org/1999/xlink" version="1.1" viewBox="12 10 75 90" width="75pt" height="90pt"><defs><linearGradient x1="0" x2="1" id="Gradient" gradientUnits="userSpaceOnUse"><stop offset="0" stop-color="gray"/><stop offset="1" stop-color="white" stop-opacity="0"/></linearGradient><linearGradient id="Obj_Gradient" xl:href="#Gradient" gradientTransform="translate(60.236228 14.173228) rotate(90) scale(85.039367)"/><marker orient="auto" overflow="visible" markerUnits="strokeWidth" id="StickArrow_Marker" viewBox="-1 -3 7 6" markerWidth="7" markerHeight="6" color="black"><g><path d="M 4.8000002 0 L 0 0 M 0 -1.8000001 L 4.8000002 0 L 0 1.8000001" fill="none" stroke="currentColor" stroke-width="1"/></g></marker><radialGradient cx="0" cy="0" r="1" id="Gradient_2" gradientUnits="userSpaceOnUse"><stop offset="0" stop-color="white" stop-opacity=".5"/><stop offset="1" stop-color="#33bef2"/></radialGradient><radialGradient id="Obj_Gradient_2" xl:href="#Gradient_2" gradientTransform="translate(40.157486 39.938137) scale(48.37904)"/></defs><g stroke="none" stroke-opacity="1" stroke-dasharray="none" fill="none" fill-opacity="1"><title>Canvas 2</title><g><title>Alpha</title><path d="M 38.976375 66.068324 C 39.171008 66.288576 39.373659 66.504226 39.584328 66.714894 C 45.119313 72.24991 54.09329 72.24991 59.628277 66.714894 C 59.83895 66.504224 60.0416 66.28857 60.236236 66.068316 C 60.43085 66.288578 60.6335 66.504227 60.84417 66.714894 C 66.379155 72.24991 75.353133 72.24991 80.88812 66.714894 C 86.423133 61.179908 86.423133 52.20593 80.88812 46.670944 C 78.890573 44.673388 76.445116 43.39674 73.875045 42.840997 C 75.224295 38.062714 74.01868 32.714873 70.2582 28.95441 C 64.723212 23.419397 55.749234 23.419397 50.214248 28.95441 C 50.003577 29.165081 49.800924 29.380733 49.60629 29.600989 C 49.411674 29.380727 49.209024 29.165078 48.998356 28.95441 C 43.46337 23.419397 34.489392 23.419397 28.954407 28.95441 C 25.193925 32.714873 23.98831 38.062714 25.337561 42.841008 C 22.767487 43.396738 20.322029 44.673387 18.324482 46.670944 C 12.789468 52.20593 12.789468 61.179908 18.324482 66.714894 C 23.859468 72.24991 32.833445 72.24991 38.368431 66.714894 C 38.579103 66.504223 38.781757 66.28857 38.976392 66.068314 Z" fill="white"/></g><g><title>Layer 1</title><path d="M 38.976386 99.212595 C 38.976386 99.212595 47.88681 71.298227 51.13681 59.54823 C 54.38681 47.798228 60.236228 14.173228 60.236228 14.173228 C 60.236228 14.173228 64.886808 43.54823 69.13681 59.29823 C 73.38681 75.04823 81.49607 99.212595 81.49607 99.212595 Z" fill="url(#Obj_Gradient)"/><path d="M 60.23622 14.173228 C 58.447178 26.336286 56.619085 38.412397 53.619094 50.662402 C 51.34507 59.947997 47.14901 73.753663 42.94408 86.940025" marker-end="url(#StickArrow_Marker)" stroke="black" stroke-linecap="round" stroke-linejoin="round" stroke-width="2"/><path d="M 60.23622 14.173228 C 62.025263 26.336286 63.853355 38.412397 66.853347 50.662402 C 69.12737 59.947997 73.32343 73.753663 77.52836 86.940025" marker-end="url(#StickArrow_Marker)" stroke="black" stroke-linecap="round" stroke-linejoin="miter" stroke-width="2"/><path d="M 38.976383 66.068324 C 39.171015 66.288576 39.373666 66.504226 39.584335 66.714894 C 45.11932 72.24991 54.093298 72.24991 59.628284 66.714894 C 59.838956 66.504224 60.04161 66.28857 60.236243 66.068316 C 60.430858 66.288578 60.63351 66.504227 60.844177 66.714894 C 66.379162 72.24991 75.35314 72.24991 80.888126 66.714894 C 86.42314 61.179908 86.42314 52.20593 80.888126 46.670944 C 78.89058 44.673388 76.445123 43.39674 73.875053 42.840997 C 75.2243 38.062714 74.018686 32.714873 70.258205 28.95441 C 64.72322 23.419397 55.74924 23.419397 50.214256 28.95441 C 50.003584 29.165081 49.80093 29.380733 49.606297 29.600989 C 49.411682 29.380727 49.20903 29.165078 48.998363 28.95441 C 43.463377 23.419397 34.4894 23.419397 28.954414 28.95441 C 25.193932 32.714873 23.988317 38.062714 25.337568 42.841008 C 22.767494 43.396738 20.322036 44.673387 18.324489 46.670944 C 12.789475 52.20593 12.789475 61.179908 18.324489 66.714894 C 23.859475 72.24991 32.833453 72.24991 38.368438 66.714894 C 38.57911 66.504223 38.781764 66.28857 38.9764 66.068314 Z" fill="url(#Obj_Gradient_2)"/><path d="M 38.976383 66.068324 C 39.171015 66.288576 39.373666 66.504226 39.584335 66.714894 C 45.11932 72.24991 54.093298 72.24991 59.628284 66.714894 C 59.838956 66.504224 60.04161 66.28857 60.236243 66.068316 C 60.430858 66.288578 60.63351 66.504227 60.844177 66.714894 C 66.379162 72.24991 75.35314 72.24991 80.888126 66.714894 C 86.42314 61.179908 86.42314 52.20593 80.888126 46.670944 C 78.89058 44.673388 76.445123 43.39674 73.875053 42.840997 C 75.2243 38.062714 74.018686 32.714873 70.258205 28.95441 C 64.72322 23.419397 55.74924 23.419397 50.214256 28.95441 C 50.003584 29.165081 49.80093 29.380733 49.606297 29.600989 C 49.411682 29.380727 49.20903 29.165078 48.998363 28.95441 C 43.463377 23.419397 34.4894 23.419397 28.954414 28.95441 C 25.193932 32.714873 23.988317 38.062714 25.337568 42.841008 C 22.767494 43.396738 20.322036 44.673387 18.324489 46.670944 C 12.789475 52.20593 12.789475 61.179908 18.324489 66.714894 C 23.859475 72.24991 32.833453 72.24991 38.368438 66.714894 C 38.57911 66.504223 38.781764 66.28857 38.9764 66.068314 Z" stroke="black" stroke-linecap="round" stroke-linejoin="round" stroke-width="2"/></g></g>
</svg>
